<?xml version="1.0" encoding="utf-8"?>
<!-- Generator: Adobe Illustrator 24.1.0, SVG Export Plug-In . SVG Version: 6.00 Build 0)  -->
<svg version="1.1" id="Layer_1" xmlns="http://www.w3.org/2000/svg" xmlns:xlink="http://www.w3.org/1999/xlink" x="0px" y="0px"
	 viewBox="0 0 512 512" style="enable-background:new 0 0 512 512;" xml:space="preserve">
<style type="text/css">
	.st0{fill:#62A7F4;}
</style>
<path class="st0" d="M20,317.3c-2,0-4-1.5-4-4V150.5c0-2.4,1.9-4,4-4c0.7,0,1.4,0.2,2.1,0.6l76.6,45.1L23.4,314.5
	C22.6,316.8,21.3,317.3,20,317.3z M231.4,405.2L23.2,383.1c-4.3-0.5-7.1-4.1-7.1-8c0-1.4,0.4-2.8,1.2-4.2l105.4-155.9L231.4,405.2z
	 M31.1,420.1c0-2,1.5-4.1,3.9-4.1c0.2,0,0.3,0,0.5,0l203.6,22.3V504c0,4.6-2.9,8-7.1,8c-1.1,0-2.3-0.2-3.4-0.8L34.2,423.6
	C32.7,422.8,31.1,421.4,31.1,420.1z M33.9,117.1c-1.3-0.8-1.9-2.1-1.9-3.4c0-1.3,0.6-2.6,1.8-3.4l150.8-98.6c0.5-0.7,2.7-1.1,4-1.1
	c4.3,0,8,3.7,8,8c0,1.4-0.4,2.8-1.2,4.2l-79.9,142.9L33.9,117.1z M146.8,175.1L242.4,6.7c3.1-4.2,8.3-6.7,12.7-6.7
	c4.4,0,10.5,2.5,13.6,7.6L364.3,176H146.8V175.1z M356.4,207.1L256,382.8L155.6,207.1H356.4z M476.1,415.1c2.4,0,3.9,2,3.9,4.1
	c0,1.4-0.7,2.8-2.3,3.5l-194.4,87.7c-1.1,0.5-2.2,0.7-3.4,0.7c-4.2,0-8-3.4-8-8v-65.7l203.6-22.3C475.7,416,475.9,415.1,476.1,415.1
	z M494.8,370.9c0.8,1.4,1.2,2.8,1.2,4.2c0,3.9-2.8,7.5-7.1,8l-208.2,22.1L389.3,215L494.8,370.9z M316.6,22.9
	c-0.9-1.4-1.2-2.8-1.2-4.2c0-4.3,3.7-8,8-8c1.3,0,2.7,0.3,4,1.1l150.8,98.6c1.2,0.8,1.8,2.1,1.8,3.4c0,1.3-0.6,2.6-1.9,3.4
	l-81.6,48.7L316.6,22.9z M491.1,146.5c2.1,0,4,1.7,4,4v162.8c0,2.5-2,4-4.1,4c-1.3,0-2.5-0.6-3.4-1.9l-75.3-122.3L489,148
	C490.6,146.7,491.3,146.5,491.1,146.5z"/>
</svg>
